Coordinates
version=1
nRows=18
nColumns=22
inDegrees=yes

Units are S.I. units (second, meters, Newtons, ...)
If the header above contains a line with 'inDegrees', this indicates whether rotational values are in degrees (yes) or radians (no).

endheader
time	pelvis_tilt	pelvis_list	pelvis_rotation	pelvis_tx	pelvis_ty	pelvis_tz	hip_flexion_r	hip_adduction_r	hip_rotation_r	knee_angle_r	ankle_angle_r	subtalar_angle_r	hip_flexion_l	hip_adduction_l	hip_rotation_l	knee_angle_l	ankle_angle_l	subtalar_angle_l	lumbar_extension	lumbar_bending	lumbar_rotation
      0.01000000	     -1.70714520	      0.40631782	    176.93405210	      0.16722870	      1.08698441	      1.20354792	     -4.47518923	      2.55751800	     -0.50221131	     -8.69739924	     11.92424154	     -4.75826181	     -3.62710969	      0.98070002	     -0.60689995	    -10.25147956	     12.66930083	     -2.87120315	     -0.88719731	     -1.25129750	     -5.75562125
      0.02000000	     -1.70907328	      0.40506294	    176.95645527	      0.16704205	      1.08696932	      1.20356840	     -4.49633422	      2.55686915	     -0.52517260	     -8.68451698	     11.93908448	     -4.75781302	     -3.63177986	      0.98075216	     -0.60162529	    -10.26330644	     12.67076674	     -2.88097386	     -0.87433778	     -1.25707478	     -5.72800815
      0.03000000	     -1.72256850	      0.39418515	    177.00439242	      0.16680338	      1.08696581	      1.20361879	     -4.54342657	      2.54745840	     -0.56189637	     -8.65361590	     11.95161742	     -4.75047721	     -3.65417760	      0.99143981	     -0.55298218	    -10.26692280	     12.68814764	     -2.90302804	     -0.86979743	     -1.27852549	     -5.72787169
      0.04000000	     -1.72427678	      0.39323078	    177.04009214	      0.16654692	      1.08694519	      1.20365924	     -4.57682683	      2.54776642	     -0.58227490	     -8.62613642	     11.96120354	     -4.74769575	     -3.66100932	      0.99057221	     -0.53533903	    -10.27997935	     12.68885053	     -2.90585661	     -0.84981802	     -1.28675629	     -5.69204933
      0.05000000	     -1.72733573	      0.38855552	    177.08590850	      0.16626110	      1.08692076	      1.20371288	     -4.61819607	      2.54524510	     -0.60622250	     -8.59026849	     11.97266984	     -4.74386642	     -3.66993585	      0.99382998	     -0.50463054	    -10.29316673	     12.69983930	     -2.90898671	     -0.82773893	     -1.30148461	     -5.65910519
      0.06000000	     -1.76796073	      0.37780798	    177.17730969	      0.16594589	      1.08694701	      1.20383357	     -4.70573897	      2.53671850	     -0.68721997	     -8.54939840	     11.98162765	     -4.72486640	     -3.72483985	      1.00506660	     -0.39824287	    -10.29309179	     12.71180963	     -2.91940961	     -0.84987001	     -1.32664540	     -5.69046782
      0.07000000	     -1.76992389	      0.37320027	    177.22332707	      0.16564402	      1.08691518	      1.20389093	     -4.74350211	      2.53417076	     -0.70153423	     -8.52060279	     11.99528245	     -4.72177829	     -3.72934490	      1.00797893	     -0.37562546	    -10.31378814	     12.72401388	     -2.92294890	     -0.82695689	     -1.34139834	     -5.64745102
      0.08000000	     -1.79173121	      0.35501135	    177.30781449	      0.16533578	      1.08690379	      1.20400758	     -4.80532672	      2.51836201	     -0.75137155	     -8.49027248	     12.01824753	     -4.71056860	     -3.75390087	      1.02673604	     -0.28600822	    -10.33272905	     12.76509901	     -2.93646484	     -0.83099819	     -1.37315476	     -5.66419535
      0.09000000	     -1.81398676	      0.34483478	    177.38976525	      0.16504427	      1.08689392	      1.20412227	     -4.85865445	      2.51052312	     -0.80941342	     -8.47479591	     12.04304085	     -4.69838079	     -3.77059572	      1.03629441	     -0.21328443	    -10.36538436	     12.77729038	     -2.95009078	     -0.84220903	     -1.39436436	     -5.66295376
      0.10000000	     -1.83180923	      0.33089930	    177.46919206	      0.16476036	      1.08687383	      1.20423156	     -4.90215824	      2.49899908	     -0.84661014	     -8.46916841	     12.07349024	     -4.68596708	     -3.77568877	      1.04988995	     -0.14307053	    -10.41040161	     12.80276320	     -2.96496357	     -0.85279884	     -1.41953574	     -5.66143269
      0.11000000	     -1.85055601	      0.31511845	    177.55643066	      0.16448896	      1.08685095	      1.20436040	     -4.93966684	      2.48537072	     -0.88372026	     -8.47635736	     12.11249732	     -4.67204370	     -3.77123591	      1.06576853	     -0.06691696	    -10.47226496	     12.83108841	     -2.98017902	     -0.87153790	     -1.44513508	     -5.66667638
      0.12000000	     -1.87058624	      0.29734773	    177.65193392	      0.16422401	      1.08682738	      1.20451415	     -4.97286920	      2.46913465	     -0.92014645	     -8.49455543	     12.15831711	     -4.65417380	     -3.75741396	      1.08432457	      0.01824681	    -10.55205153	     12.86479534	     -2.99660569	     -0.89826444	     -1.47078343	     -5.67911645
      0.13000000	     -1.89113677	      0.27927928	    177.75290864	      0.16396888	      1.08680197	      1.20468915	     -5.00129182	      2.45243856	     -0.95363351	     -8.52303891	     12.20877410	     -4.63258344	     -3.73136289	      1.10401275	      0.10800450	    -10.65316440	     12.90417594	     -3.01341157	     -0.93223335	     -1.49495592	     -5.69570297
      0.14000000	     -1.91065501	      0.26232551	    177.85870616	      0.16372401	      1.08677190	      1.20488378	     -5.02347825	      2.43636994	     -0.99256365	     -8.55996785	     12.26314623	     -4.60554832	     -3.69036081	      1.12304185	      0.20494546	    -10.77946649	     12.95133964	     -3.03100920	     -0.97060217	     -1.51620513	     -5.71672015
      0.15000000	     -1.92567675	      0.24846875	    177.96495751	      0.16350223	      1.08673377	      1.20509714	     -5.03667770	      2.42257770	     -1.03298680	     -8.60236947	     12.31739814	     -4.57477994	     -3.63018137	      1.13943647	      0.30125904	    -10.92976114	     13.00540822	     -3.04805270	     -1.01163724	     -1.53151286	     -5.73637666
      0.16000000	     -1.93316926	      0.23887293	    178.07059963	      0.16330545	      1.08668238	      1.20532153	     -5.03810963	      2.41277473	     -1.08207654	     -8.64891671	     12.37250032	     -4.53956448	     -3.54679317	      1.15171793	      0.39717905	    -11.10610686	     13.06921126	     -3.06478810	     -1.05132898	     -1.54021813	     -5.75452822
      0.17000000	     -1.89372268	      0.23943042	    178.18513471	      0.16314090	      1.08656943	      1.20557728	     -4.97785687	      2.41383355	     -1.17057147	     -8.71267395	     12.41722040	     -4.46335943	     -3.39744119	      1.15374945	      0.52734075	    -11.30965829	     13.12728526	     -3.08075092	     -1.04198401	     -1.53407834	     -5.77631472
      0.18000000	     -1.88277211	      0.24200988	    178.27284865	      0.16296873	      1.08648244	      1.20579807	     -4.95741859	      2.41478570	     -1.22950636	     -8.75815693	     12.48035773	     -4.42937415	     -3.26899464	      1.15507793	      0.60239865	    -11.53471200	     13.21697648	     -3.09674629	     -1.06872347	     -1.52758203	     -5.76378896
